# xmcd
#
# Track frame offsets:
#	150
#	24778
#	50972
#	67581
#	104343
#	137474
#	153631
#	188890
#	210533
#	239305
#
# Disc length: 3952 seconds
#
# Revision: 1
# Processed by: cddbd v1.5.2PL0 Copyright (c) Steve Scherf et al.
# Submitted via: audiograbber 1.83.01
#
DISCID=800f6e0a
DTITLE=Grateful Dead - 77-10-29 Evans Field House, Northern Illinois University
DTITLE=, DeKalb IL
DYEAR=1900
DGENRE=
TTITLE0=Might As Well
TTITLE1=Jack Straw
TTITLE2=Dire Wolf
TTITLE3=Looks Like Rain
TTITLE4=Loser
TTITLE5=El Paso
TTITLE6=Ramble On Rose
TTITLE7=New Minglewood Blues
TTITLE8=It Must Have Been The Roses
TTITLE9=Let It Grow
EXTD=
EXTT0=
EXTT1=
EXTT2=
EXTT3=
EXTT4=
EXTT5=
EXTT6=
EXTT7=
EXTT8=
EXTT9=
PLAYORDER=
